<?xml version="1.0" encoding="UTF-8" standalone="no"?>
<!-- Created with Inkscape (http://www.inkscape.org/) -->

<svg
   width="67.733002mm"
   height="67.733002mm"
   viewBox="0 0 67.733002 67.733002"
   version="1.1"
   id="svg1"
   xml:space="preserve"
   xmlns="http://www.w3.org/2000/svg"
   xmlns:svg="http://www.w3.org/2000/svg"><defs
     id="defs1" /><g
     id="layer1"
     transform="translate(-82.28846,-113.27214)"><rect
       style="opacity:1;fill:#f4f2ed;fill-opacity:1;stroke-width:0.263856"
       id="rect2"
       width="67.733002"
       height="67.733002"
       x="82.28846"
       y="113.27214"
       ry="15.8725" /><path
       d="m 136.22023,159.8546 c -2.59198,-0.0723 -4.6028,0.19334 -6.28818,0.90243 -0.48529,0.19504 -1.26403,0.19504 -1.32797,0.80569 0.25948,0.25639 0.29059,0.67577 0.51796,1.03096 0.38867,0.6447 1.07007,1.51321 1.68539,1.96371 l 2.07402,1.48219 c 1.26404,0.77245 2.69006,1.22369 3.92142,1.9969 0.71339,0.45124 1.42603,1.03095 2.13941,1.51466 0.36323,0.25781 0.58335,0.67721 1.03739,0.83746 v -0.0974 c -0.22656,-0.28876 -0.29204,-0.70752 -0.51796,-1.03093 l -0.97344,-0.93351 c -0.93931,-1.25618 -2.10674,-2.35212 -3.37077,-3.25311 -1.03739,-0.70895 -3.30539,-1.67492 -3.72673,-2.86615 l -0.0639,-0.0723 c 0.71192,-0.0723 1.55463,-0.32272 2.23606,-0.51618 1.10274,-0.28878 2.10669,-0.22515 3.23997,-0.51476 l 1.55678,-0.45124 v -0.28877 c -0.58332,-0.57973 -1.00467,-1.35293 -1.61999,-1.90019 -1.65268,-1.41719 -3.46884,-2.80262 -5.34887,-3.96207 -1.0047,-0.64399 -2.30145,-1.06343 -3.37077,-1.60996 -0.39011,-0.19335 -1.03739,-0.29021 -1.26404,-0.61223 -0.58481,-0.70749 -0.90808,-1.64242 -1.32942,-2.48062 l -2.6574,-5.60452 c -0.58334,-1.25619 -0.94073,-2.51241 -1.65267,-3.67187 -3.33879,-5.47602 -6.96961,-8.79339 -12.54445,-12.04721 -1.19867,-0.67647 -2.62469,-0.96744 -4.14079,-1.32118 l -2.43073,-0.13002 c -0.51943,-0.22516 -1.03738,-0.8375 -1.49145,-1.12771 -1.847344,-1.15946 -6.612191,-3.67185 -7.97428,-0.36097 -0.875386,2.09366 1.296719,4.15485 2.03409,5.21828 0.552105,0.74073 1.264039,1.57818 1.654148,2.41566 0.217836,0.54723 0.290556,1.12769 0.517957,1.70743 0.517964,1.41718 1.004686,2.99612 1.685338,4.31728 0.363237,0.67647 0.74466,1.38616 1.198678,1.99763 0.2592,0.36099 0.713379,0.51548 0.810019,1.09521 -0.454069,0.6447 -0.485299,1.60995 -0.744629,2.41637 -1.167441,3.6401 -0.713385,8.14941 0.939299,10.8293 0.51943,0.80497 1.74349,2.57738 3.40417,1.90021 1.45874,-0.57974 1.13326,-2.41568 1.55463,-4.02636 0.0979,-0.38625 0.0326,-0.64396 0.22655,-0.90245 v 0.072 l 1.32942,2.67342 c 1.00469,1.57818 2.75544,3.22135 4.21346,4.31728 0.7773,0.57971 1.39333,1.57891 2.36533,1.93265 v -0.0973 h -0.0639 c -0.19475,-0.28878 -0.48672,-0.41873 -0.74606,-0.64397 -0.58335,-0.57974 -1.23136,-1.28869 -1.68539,-1.93267 -1.36066,-1.80346 -2.55931,-3.80109 -3.62937,-5.86226 -0.51944,-0.99848 -0.97345,-2.09368 -1.39335,-3.09213 -0.19615,-0.38697 -0.19615,-0.96744 -0.51942,-1.15946 -0.48672,0.70751 -1.19866,1.32116 -1.5568,2.19039 -0.61603,1.38473 -0.67995,3.09214 -0.90663,4.86381 -0.13088,0.0324 -0.0727,0 -0.13088,0.0723 -1.03591,-0.25696 -1.3933,-1.32118 -1.78199,-2.22219 -0.97199,-2.28716 -1.1347,-5.959 -0.29203,-8.60061 0.22657,-0.67648 1.2001,-2.80265 0.81146,-3.44661 -0.19617,-0.61223 -0.84267,-0.96599 -1.20009,-1.44968 -0.42133,-0.61222 -0.873919,-1.38472 -1.165969,-2.06119 -0.777326,-1.80488 -1.165962,-3.80109 -2.009388,-5.60525 -0.390101,-0.83747 -1.070063,-1.7074 -1.621434,-2.4799 -0.616043,-0.86997 -1.295271,-1.48215 -1.781997,-2.5124 -0.162115,-0.36099 -0.388676,-0.93423 -0.129187,-1.32118 0.06388,-0.2578 0.194757,-0.36098 0.452586,-0.41872 0.421344,-0.36098 1.621436,0.0968 2.04279,0.28878 1.198652,0.48369 2.203336,0.93419 3.20803,1.60996 0.454039,0.32198 0.940769,0.93418 1.524109,1.0959 h 0.6814 c 1.03739,0.22516 2.20335,0.0723 3.17462,0.36098 1.71806,0.5487 3.27342,1.35295 4.6682,2.22363 4.24541,2.6734 7.74693,6.47449 10.11227,11.01701 0.38869,0.74072 0.55068,1.41718 0.90808,2.19042 0.68143,1.57888 1.52412,3.18883 2.20335,4.736 0.68142,1.51392 1.32942,3.06107 2.30144,4.3173 0.48672,0.67646 2.43071,1.0302 3.30535,1.38467 0.64875,0.28878 1.6527,0.54871 2.23748,0.90245 1.10131,0.67646 2.20335,1.4497 3.24001,2.19043 0.51797,0.38551 2.1394,1.19119 2.23602,1.83373 z m -33.05376,-27.99159 a 5.1505779,5.1186498 0 0 0 -1.32796,0.16099 v 0.072 h 0.0639 c 0.2595,0.51545 0.71339,0.86993 1.03741,1.32116 l 0.74608,1.54645 0.0639,-0.072 c 0.45403,-0.32199 0.6814,-0.83748 0.6814,-1.60996 -0.19477,-0.22515 -0.22656,-0.45124 -0.38865,-0.67647 -0.19474,-0.32199 -0.61604,-0.4837 -0.87612,-0.74072 z"
       fill-rule="evenodd"
       fill="#00678c"
       id="path1"
       style="fill:#34789a;fill-opacity:1;stroke-width:0.7242" /></g></svg>
